<svg preserveAspectRatio="none" overflow="visible" style="display: block;" width="33.3345" height="33.3345" viewBox="0 0 33.3345 33.3345" fill="none" xmlns="http://www.w3.org/2000/svg">
<path id="Vector" d="M15.6683 26.9345L27.995 14.6079C25.9213 13.7416 24.0379 12.4765 22.4517 10.8845C20.8589 9.29795 19.5933 7.41395 18.7267 5.33953L6.39999 17.6662C5.43833 18.6279 4.95666 19.1095 4.54333 19.6395C4.05565 20.2653 3.6371 20.942 3.29499 21.6579C3.00666 22.2645 2.79166 22.9112 2.36166 24.2012L0.0916592 31.0062C-0.0128179 31.3178 -0.0283187 31.6523 0.0468989 31.9722C0.122116 32.2921 0.285071 32.5847 0.517445 32.8171C0.749819 33.0495 1.0424 33.2124 1.3623 33.2876C1.68221 33.3628 2.01675 33.3473 2.32833 33.2429L9.13333 30.9729C10.425 30.5429 11.07 30.3279 11.6767 30.0395C12.3955 29.6973 13.0683 29.2812 13.695 28.7912C14.225 28.3779 14.7067 27.8962 15.6683 26.9345ZM31.415 11.1879C32.6441 9.95881 33.3345 8.29185 33.3345 6.5537C33.3345 4.81555 32.6441 3.14859 31.415 1.91953C30.1859 0.690477 28.519 1.29502e-08 26.7808 0C25.0427 -1.29502e-08 23.3757 0.690477 22.1467 1.91953L20.6683 3.39787L20.7317 3.58287C21.46 5.6675 22.6522 7.55952 24.2183 9.1162C25.8216 10.7292 27.7798 11.9449 29.9367 12.6662L31.415 11.1879Z" fill="#FFF7E7"/>
</svg>
